# xmcd CD database file
#
# Track frame offsets:
#	150
#	11827
#	23585
#	35252
#	46157
#	58217
#	68520
#	81472
#	91972
#	109530
#	120073
#	132473
#	145258
#	157993
#	171165
#	181355
#	194500
#	205740
#	214983
#	227515
#	240048
#	255700
#	266538
#	278773
#	307980
#	321828
#	332418
#
# Disc length: 4611 seconds
#
# Revision: 1
# Processed by: cddbd v1.5.1PL2 Copyright (c) Steve Scherf et al.
# Submitted via: CDex 1.51
#
DISCID=6912011b
DTITLE=Ray Charles - The Birth Of Soul - Disk 2
DYEAR=1900
DGENRE=Blues
TTITLE0=Hallelujah I Love Her So
TTITLE1=What Would I Do Without You
TTITLE2=Lonely Avenue
TTITLE3=I Want To Know
TTITLE4=Leave My Woman Alone
TTITLE5=It's Alright
TTITLE6=Ain't That Love
TTITLE7=Get On The Right Track
TTITLE8=Rockhouse Parts 1 and 2
TTITLE9=Swanee River Rock
TTITLE10=That's Enough
TTITLE11=Talkin' About You
TTITLE12=What Kind Of Man Are You
TTITLE13=I Want A Little Girl
TTITLE14=Yes Indeed
TTITLE15=I Had A Dream
TTITLE16=You Be My Baby
TTITLE17=Tell All The World About You
TTITLE18=My Bonnie
TTITLE19=Early In The Morning
TTITLE20=The Right Time
TTITLE21=Carryin' The Load
TTITLE22=Tell Me How Do You Feel
TTITLE23=What'd I Say, Parts 1 and 2
TTITLE24=Tell The Truth
TTITLE25=I'm Movin' On
TTITLE26=I Believe To My Soul
EXTD=
EXTT0=
EXTT1=
EXTT2=
EXTT3=
EXTT4=
EXTT5=
EXTT6=
EXTT7=
EXTT8=
EXTT9=
EXTT10=
EXTT11=
EXTT12=
EXTT13=
EXTT14=
EXTT15=
EXTT16=
EXTT17=
EXTT18=
EXTT19=
EXTT20=
EXTT21=
EXTT22=
EXTT23=
EXTT24=
EXTT25=
EXTT26=
PLAYORDER=
